<svg width="256" height="148" viewBox="0 0 256 148" fill="none" xmlns="http://www.w3.org/2000/svg">
<path d="M256 3.99274V43.9405C255.045 45.08 253.839 45.9826 252.477 46.5775C251.115 47.1724 249.633 47.4434 248.148 47.3692C231.613 47.8561 218.385 59.7857 218.304 74.0484C218.223 88.3111 231.451 100.586 248.169 101.093C249.651 101.015 251.131 101.285 252.49 101.88C253.85 102.476 255.052 103.38 256 104.521V147.898H3.32903C2.17865 147.005 1.27364 145.835 0.698794 144.498C0.123947 143.16 -0.101929 141.698 0.0423232 140.249C0.245207 129.476 0.0423232 118.683 0.0423232 107.91C0.0423232 102.919 1.8277 101.377 7.7316 101.154C24.5101 100.504 37.7381 88.5951 37.6975 74.1498C37.6569 59.7045 24.5709 47.9576 7.67074 47.3083C2.07116 47.1866 0.143765 45.4824 0.0423232 40.7552C0.0423232 29.6372 0.0423232 18.438 0.0423232 7.3809C0.0423232 1.9842 1.8277 0.523438 8.40112 0.523438C88.2019 0.523438 168.003 0.523438 247.804 0.523438C251.618 0.523438 254.255 1.25382 256 3.99274Z" fill="url(#paint0_linear_89_5523)"/>
<path d="M72.7129 69.8273V24.5234H75.1069V67.697H95.8213V69.7259L72.7129 69.8273Z" fill="white"/>
<path d="M111.732 24.5234V52.4402C111.698 54.8955 111.902 57.3483 112.341 59.7643C112.629 61.5668 113.323 63.2803 114.37 64.7755C115.367 66.0734 116.721 67.0532 118.265 67.5956C122.198 68.759 126.383 68.759 130.316 67.5956C131.869 67.0588 133.231 66.0783 134.232 64.7755C135.279 63.2803 135.973 61.5668 136.261 59.7643C136.717 57.3505 136.928 54.8965 136.89 52.4402V24.5234H139.284V52.0344C139.326 54.9007 139.067 57.7634 138.513 60.5758C138.105 62.674 137.223 64.6515 135.936 66.358C134.731 67.8729 133.109 69.0015 131.27 69.6041C128.975 70.3315 126.576 70.6742 124.169 70.6185C121.769 70.6777 119.375 70.3348 117.088 69.6041C115.266 69.0006 113.664 67.8711 112.483 66.358C111.209 64.6482 110.342 62.6708 109.947 60.5758C109.375 57.7657 109.109 54.9018 109.156 52.0344V24.5234H111.732Z" fill="white"/>
<path d="M188.335 69.8273H185.474L171.638 48.7274H171.516L157.558 69.8273H154.758L170.096 46.8406L155.285 24.5234H158.146L171.516 44.8118H171.638L185.028 24.5234H187.808L173.078 46.658L188.335 69.8273Z" fill="white"/>
<path d="M85.1282 83.4623V126.636H82.7342V83.4623H66.8281V81.332H101.034V83.4623H85.1282Z" fill="white"/>
<path d="M119.748 126.635V124.606H126.565V83.3394H119.748V81.3105H135.776V83.3394H128.898V124.626H135.715V126.655L119.748 126.635Z" fill="white"/>
<path d="M188.731 126.636H185.769L171.952 105.536H171.81L157.852 126.636H155.072L170.471 103.649L155.661 81.332H158.521L171.891 101.62H172.033L185.403 81.332H188.122L173.372 103.467L188.731 126.636Z" fill="white"/>
<defs>
<linearGradient id="paint0_linear_89_5523" x1="0.0423232" y1="74.2107" x2="256" y2="74.2107" gradientUnits="userSpaceOnUse">
<stop offset="0.16" stop-color="#986B2D"/>
<stop offset="1" stop-color="#E5BF67"/>
</linearGradient>
</defs>
</svg>
